<mxfile host="Electron" modified="2024-05-26T13:55:03.223Z" agent="Mozilla/5.0 (Windows NT 10.0; Win64; x64) AppleWebKit/537.36 (KHTML, like Gecko) draw.io/23.1.5 Chrome/120.0.6099.109 Electron/28.1.0 Safari/537.36" etag="ENKVAuHYm3rBGZ4zbslC" version="23.1.5" type="device">
  <diagram name="Page-1" id="fupJLmAl7Hud7uF2GurD">
    <mxGraphModel dx="1885" dy="1095" grid="1" gridSize="10" guides="1" tooltips="1" connect="1" arrows="1" fold="1" page="1" pageScale="1" pageWidth="850" pageHeight="1100" background="none" math="0" shadow="0">
      <root>
        <mxCell id="0" />
        <mxCell id="1" parent="0" />
        <mxCell id="25ecDG9q_ybwhCR9VPCe-3" value="" style="rounded=0;whiteSpace=wrap;html=1;strokeColor=none;" parent="1" vertex="1">
          <mxGeometry y="70" width="930" height="600" as="geometry" />
        </mxCell>
        <mxCell id="TTqqyENwrC3padP_ZBtG-1" value="" style="rounded=0;whiteSpace=wrap;html=1;strokeColor=#66FF66;" parent="1" vertex="1">
          <mxGeometry x="470" y="355" width="370" height="220" as="geometry" />
        </mxCell>
        <mxCell id="W2UvnLE42ZpJzcV71eIw-12" value="" style="rounded=0;whiteSpace=wrap;html=1;strokeColor=#3399FF;" parent="1" vertex="1">
          <mxGeometry x="85" y="355" width="370" height="220" as="geometry" />
        </mxCell>
        <mxCell id="W2UvnLE42ZpJzcV71eIw-1" value="WAN" style="image;aspect=fixed;perimeter=ellipsePerimeter;html=1;align=center;shadow=0;dashed=0;spacingTop=3;image=img/lib/active_directory/internet_cloud.svg;" parent="1" vertex="1">
          <mxGeometry x="440" y="100" width="50" height="31.5" as="geometry" />
        </mxCell>
        <mxCell id="W2UvnLE42ZpJzcV71eIw-2" value="vswitch&lt;br&gt;VNET5" style="image;html=1;image=img/lib/clip_art/networking/Switch_128x128.png" parent="1" vertex="1">
          <mxGeometry x="230" y="242.5" width="80" height="50" as="geometry" />
        </mxCell>
        <mxCell id="W2UvnLE42ZpJzcV71eIw-4" value="vswitch&lt;br&gt;VNET6" style="image;html=1;image=img/lib/clip_art/networking/Switch_128x128.png" parent="1" vertex="1">
          <mxGeometry x="615" y="240" width="80" height="55" as="geometry" />
        </mxCell>
        <mxCell id="W2UvnLE42ZpJzcV71eIw-5" value="PXE-Diskless-Client&lt;div&gt;IP: DHCP&lt;/div&gt;" style="image;aspect=fixed;perimeter=ellipsePerimeter;html=1;align=center;shadow=0;dashed=0;spacingTop=3;image=img/lib/active_directory/laptop_client.svg;" parent="1" vertex="1">
          <mxGeometry x="141.5" y="380" width="45" height="50" as="geometry" />
        </mxCell>
        <mxCell id="W2UvnLE42ZpJzcV71eIw-8" value="PXE-Server&lt;br&gt;192.168.1.3" style="image;aspect=fixed;perimeter=ellipsePerimeter;html=1;align=center;shadow=0;dashed=0;spacingTop=3;image=img/lib/active_directory/generic_server.svg;" parent="1" vertex="1">
          <mxGeometry x="350" y="380" width="28.000000000000004" height="50" as="geometry" />
        </mxCell>
        <mxCell id="W2UvnLE42ZpJzcV71eIw-6" value="DHCP-Relay&lt;div&gt;IP: DHCP&lt;/div&gt;" style="image;aspect=fixed;perimeter=ellipsePerimeter;html=1;align=center;shadow=0;dashed=0;spacingTop=3;image=img/lib/active_directory/laptop_client.svg;" parent="1" vertex="1">
          <mxGeometry x="590" y="380" width="45" height="50" as="geometry" />
        </mxCell>
        <mxCell id="W2UvnLE42ZpJzcV71eIw-9" value="DHCP-Server&lt;br&gt;192.168.1.2&lt;div&gt;192.168.2.1&lt;/div&gt;" style="image;aspect=fixed;perimeter=ellipsePerimeter;html=1;align=center;shadow=0;dashed=0;spacingTop=3;image=img/lib/active_directory/generic_server.svg;" parent="1" vertex="1">
          <mxGeometry x="451" y="440" width="28.000000000000004" height="50" as="geometry" />
        </mxCell>
        <mxCell id="W2UvnLE42ZpJzcV71eIw-10" value="Windows-Client&lt;br&gt;IP: 192.168.1.4" style="image;aspect=fixed;perimeter=ellipsePerimeter;html=1;align=center;shadow=0;dashed=0;spacingTop=3;image=img/lib/active_directory/laptop_client.svg;" parent="1" vertex="1">
          <mxGeometry x="247.5" y="380" width="45" height="50" as="geometry" />
        </mxCell>
        <mxCell id="ejscUD1Lvsw7uZOZ7WGE-1" value="" style="endArrow=none;html=1;rounded=0;exitX=0.5;exitY=0;exitDx=0;exitDy=0;strokeColor=#3399FF;" parent="1" source="W2UvnLE42ZpJzcV71eIw-12" target="W2UvnLE42ZpJzcV71eIw-2" edge="1">
          <mxGeometry width="50" height="50" relative="1" as="geometry">
            <mxPoint x="310" y="360" as="sourcePoint" />
            <mxPoint x="360" y="310" as="targetPoint" />
          </mxGeometry>
        </mxCell>
        <mxCell id="ejscUD1Lvsw7uZOZ7WGE-6" value="DNS-Server&lt;br&gt;IP: 192.168.1.7" style="image;aspect=fixed;perimeter=ellipsePerimeter;html=1;align=center;shadow=0;dashed=0;spacingTop=3;image=img/lib/active_directory/generic_server.svg;" parent="1" vertex="1">
          <mxGeometry x="150" y="480" width="28.000000000000004" height="50" as="geometry" />
        </mxCell>
        <mxCell id="25ecDG9q_ybwhCR9VPCe-1" value="Secondary-DNS-Server&lt;br&gt;IP: 192.168.1.9" style="image;aspect=fixed;perimeter=ellipsePerimeter;html=1;align=center;shadow=0;dashed=0;spacingTop=3;image=img/lib/active_directory/generic_server.svg;" parent="1" vertex="1">
          <mxGeometry x="256" y="480" width="28.000000000000004" height="50" as="geometry" />
        </mxCell>
        <mxCell id="25ecDG9q_ybwhCR9VPCe-4" value="vswitch&lt;br&gt;NAT" style="image;html=1;image=img/lib/clip_art/networking/Switch_128x128.png" parent="1" vertex="1">
          <mxGeometry x="425" y="242.5" width="80" height="50" as="geometry" />
        </mxCell>
        <mxCell id="25ecDG9q_ybwhCR9VPCe-6" value="" style="endArrow=none;html=1;rounded=0;entryX=0;entryY=0.5;entryDx=0;entryDy=0;exitX=1;exitY=0.5;exitDx=0;exitDy=0;" parent="1" source="W2UvnLE42ZpJzcV71eIw-12" target="W2UvnLE42ZpJzcV71eIw-9" edge="1">
          <mxGeometry width="50" height="50" relative="1" as="geometry">
            <mxPoint x="370" y="620" as="sourcePoint" />
            <mxPoint x="420" y="570" as="targetPoint" />
          </mxGeometry>
        </mxCell>
        <mxCell id="TTqqyENwrC3padP_ZBtG-3" value="" style="endArrow=none;html=1;rounded=0;exitX=0.5;exitY=0;exitDx=0;exitDy=0;entryX=0.5;entryY=1;entryDx=0;entryDy=0;fillColor=#60a917;strokeColor=#66FF66;" parent="1" source="TTqqyENwrC3padP_ZBtG-1" target="W2UvnLE42ZpJzcV71eIw-4" edge="1">
          <mxGeometry width="50" height="50" relative="1" as="geometry">
            <mxPoint x="790" y="340" as="sourcePoint" />
            <mxPoint x="840" y="290" as="targetPoint" />
          </mxGeometry>
        </mxCell>
        <mxCell id="TTqqyENwrC3padP_ZBtG-4" value="" style="endArrow=none;html=1;rounded=0;exitX=1;exitY=0.5;exitDx=0;exitDy=0;entryX=0;entryY=0.5;entryDx=0;entryDy=0;strokeColor=#66FF66;" parent="1" source="25ecDG9q_ybwhCR9VPCe-4" target="W2UvnLE42ZpJzcV71eIw-4" edge="1">
          <mxGeometry width="50" height="50" relative="1" as="geometry">
            <mxPoint x="580" y="310" as="sourcePoint" />
            <mxPoint x="630" y="260" as="targetPoint" />
          </mxGeometry>
        </mxCell>
        <mxCell id="TTqqyENwrC3padP_ZBtG-5" value="" style="endArrow=none;html=1;rounded=0;exitX=1;exitY=0.5;exitDx=0;exitDy=0;entryX=0;entryY=0.5;entryDx=0;entryDy=0;strokeColor=#3399FF;" parent="1" source="W2UvnLE42ZpJzcV71eIw-2" target="25ecDG9q_ybwhCR9VPCe-4" edge="1">
          <mxGeometry width="50" height="50" relative="1" as="geometry">
            <mxPoint x="310" y="269.5" as="sourcePoint" />
            <mxPoint x="435" y="269.5" as="targetPoint" />
          </mxGeometry>
        </mxCell>
        <mxCell id="TTqqyENwrC3padP_ZBtG-6" value="" style="endArrow=none;html=1;rounded=0;exitX=0.5;exitY=0;exitDx=0;exitDy=0;entryX=0.5;entryY=1;entryDx=0;entryDy=0;strokeColor=#FF0000;" parent="1" source="25ecDG9q_ybwhCR9VPCe-4" target="W2UvnLE42ZpJzcV71eIw-1" edge="1">
          <mxGeometry width="50" height="50" relative="1" as="geometry">
            <mxPoint x="540" y="220" as="sourcePoint" />
            <mxPoint x="590" y="170" as="targetPoint" />
          </mxGeometry>
        </mxCell>
      </root>
    </mxGraphModel>
  </diagram>
</mxfile>
